<svg id="border-nine" data-name="Layer 1" xmlns="http://www.w3.org/2000/svg" width="300" height="300" viewBox="0 0 300 300">
  <g>
    <g>
      <path d="M48.74,58.12V10.71a5.1,5.1,0,0,1,5.1-5.1h48.28V.84H53.84A9.87,9.87,0,0,0,44,10.71V58.12Z"/>
      <path d="M198,5.61h48.16a5.1,5.1,0,0,1,5.1,5.1V58.12H256V10.71A9.87,9.87,0,0,0,246.16.84H198Z"/>
      <path d="M251.26,154v49a5.1,5.1,0,0,1-5.1,5.1H198v4.78h48.16A9.88,9.88,0,0,0,256,203V154Z"/>
      <path d="M102.12,208.14H53.84a5.1,5.1,0,0,1-5.1-5.1V154H44v49a9.88,9.88,0,0,0,9.88,9.88h48.28Z"/>
    </g>
    <g>
      <path d="M148.62,272.17c-2.9,0-4.79,1.86-4.79,4.36s1.89,4.32,4.79,4.32a6.54,6.54,0,0,0,5.3-2.4v-3.84A6.57,6.57,0,0,0,148.62,272.17Z"/>
      <path d="M226.74,265.57c-4.13,0-6.2,3.63-6.35,6.68h12.74C233.09,269.27,231.13,265.57,226.74,265.57Z"/>
    </g>
    <g>
      <path d="M75.81,280.87a2,2,0,0,0-2,2,2,2,0,1,0,2-2Z"/>
      <polygon points="68.25 279.59 83.29 279.59 83.29 259.63 68.25 259.48 68.25 279.59"/>
      <path d="M245.88,238.21H174.19a2.31,2.31,0,0,1-1.66-.68l-21.07-21.07a2.4,2.4,0,0,0-3.34,0l-21.06,21.07a2.34,2.34,0,0,1-1.67.68H53.7a9.39,9.39,0,0,0-9.39,9.4v42.21a9.39,9.39,0,0,0,9.39,9.4H246a9.34,9.34,0,0,0,9.32-9.4V247.61A9.4,9.4,0,0,0,245.88,238.21ZM85.64,265.76v17.38a3.12,3.12,0,0,1-3.1,3.1H69.16a3.12,3.12,0,0,1-3.1-3.1V255.93a3.12,3.12,0,0,1,3.1-3.1H82.54a3.17,3.17,0,0,1,3.1,3.1Zm25.72,16.58a11.13,11.13,0,0,1-8.86-3.85l1.35-1.56a9.87,9.87,0,0,0,7.54,3.52c5,0,6.39-2.76,6.39-4.83,0-3.41-3.23-4.35-6.64-5.26-3.81-1.05-7.88-2.14-7.88-6.6,0-4,3.56-6.46,7.95-6.46a10.38,10.38,0,0,1,8.2,3.41L118,262.23a8.68,8.68,0,0,0-6.93-3.05c-3.23,0-5.66,1.85-5.66,4.47,0,2.86,3,3.7,6.32,4.57,3.91,1.12,8.2,2.36,8.2,7.26C120,278.6,117.89,282.34,111.36,282.34Zm21.11-1.71a5.58,5.58,0,0,0,4.79-2.47l1.31,1.16a7.16,7.16,0,0,1-6.2,3c-5.16,0-8.53-4.11-8.53-9.22s3.37-9.18,8.53-9.18a7.24,7.24,0,0,1,6.2,3l-1.31,1.16a5.54,5.54,0,0,0-4.79-2.43c-4.1,0-6.6,3.27-6.6,7.48S128.37,280.63,132.47,280.63Zm23.34,1.27h-1.89v-2.07a7.62,7.62,0,0,1-5.95,2.51,5.87,5.87,0,0,1-6.13-5.85c0-3.81,3.08-5.8,6.13-5.8a7.6,7.6,0,0,1,5.95,2.5v-3.55c0-2.62-2.11-4-4.72-4a6.83,6.83,0,0,0-5.48,2.57l-1.05-1.3a8.51,8.51,0,0,1,6.75-2.94c3.56,0,6.39,1.7,6.39,5.62Zm19.59,0h-1.89V270c0-3.37-1.7-4.39-4.24-4.39a7.54,7.54,0,0,0-5.7,3V281.9h-1.89V264.37h1.89V267a8.89,8.89,0,0,1,6.31-3.08c3.56,0,5.52,1.74,5.52,5.7Zm38,0h-2.1V260.42l-8.82,21.48h-.8l-8.85-21.48V281.9h-2.07V257.7h3.08l8.24,20.06,8.2-20.06h3.12Zm21.66-8.17H220.39c.19,3.82,2.73,7,6.86,7a7.66,7.66,0,0,0,5.73-2.43l1,1.24a9,9,0,0,1-6.85,2.83c-5.12,0-8.78-3.82-8.78-9.22,0-5.08,3.59-9.18,8.45-9.18,5.33,0,8.27,4.24,8.27,9.29Z"/>
      <path d="M73.24,257.52h5.14a1.44,1.44,0,0,0,1.44-1.44,1.49,1.49,0,0,0-1.44-1.43H73.32a1.44,1.44,0,1,0-.08,2.87Z"/>
    </g>
  </g>
</svg>
